<svg xmlns="http://www.w3.org/2000/svg" xmlns:xlink="http://www.w3.org/1999/xlink" width="500" zoomAndPan="magnify" viewBox="0 0 375 374.999991" height="500" preserveAspectRatio="xMidYMid meet" version="1.0"><defs><clipPath id="992cb915ce"><path d="M 10 32 L 345 32 L 345 345.855469 L 10 345.855469 Z M 10 32 " clip-rule="nonzero"/></clipPath><clipPath id="2aaafb78cb"><path d="M 16 35 L 343 35 L 343 345.855469 L 16 345.855469 Z M 16 35 " clip-rule="nonzero"/></clipPath><clipPath id="9ec7d5d35a"><path d="M 6 29.355469 L 349 29.355469 L 349 345.855469 L 6 345.855469 Z M 6 29.355469 " clip-rule="nonzero"/></clipPath></defs><g clip-path="url(#992cb915ce)"><path fill="#ffffff" d="M 59.390625 345.695312 L 76.730469 306.882812 C 76.730469 306.882812 9.363281 290.722656 10.101562 215.3125 C 10.839844 139.902344 69.054688 111.417969 93.703125 100.203125 C 121.8125 48.992188 163.355469 32.023438 174.867188 32.316406 C 181.433594 45.597656 186.230469 86.550781 186.230469 86.550781 C 186.230469 86.550781 203.9375 91.199219 229.984375 97.546875 C 251.382812 70.390625 315.429688 54.453125 322.953125 58.808594 C 344.871094 100.941406 331.585938 172.074219 331.585938 172.074219 C 331.585938 172.074219 353.503906 197.382812 341.179688 252.722656 C 328.859375 307.992188 273.8125 315.371094 273.8125 315.371094 L 280.96875 345.695312 Z M 59.390625 345.695312 L 76.730469 306.882812 C 76.730469 306.882812 9.363281 290.722656 10.101562 215.3125 C 10.839844 139.902344 69.054688 111.417969 93.703125 100.203125 C 121.8125 48.992188 163.355469 32.023438 174.867188 32.316406 C 181.433594 45.597656 186.230469 86.550781 186.230469 86.550781 C 186.230469 86.550781 203.9375 91.199219 229.984375 97.546875 C 251.382812 70.390625 315.429688 54.453125 322.953125 58.808594 C 344.871094 100.941406 331.585938 172.074219 331.585938 172.074219 C 331.585938 172.074219 353.503906 197.382812 341.179688 252.722656 C 328.859375 307.992188 273.8125 315.371094 273.8125 315.371094 L 280.96875 345.695312 Z M 59.390625 345.695312 " fill-opacity="1" fill-rule="nonzero"/></g><path fill="#efb07d" d="M 199.953125 92.308594 C 199.953125 92.308594 215.523438 158.863281 138.710938 190.816406 C 66.03125 221.066406 21.316406 174.066406 24.933594 158.863281 C 31.941406 140.121094 63.300781 119.683594 63.300781 119.683594 C 63.300781 119.683594 78.796875 111.566406 103.515625 109.867188 C 108.3125 94.003906 124.988281 59.546875 172.285156 35.269531 C 179.734375 50.175781 186.230469 87.730469 186.230469 87.730469 Z M 284.808594 122.78125 C 284.808594 122.78125 301.558594 139.679688 309.820312 154.953125 C 328.488281 114.8125 311.738281 77.179688 311.738281 77.179688 Z M 284.808594 122.78125 " fill-opacity="1" fill-rule="nonzero"/><g clip-path="url(#2aaafb78cb)"><path fill="#ef5454" d="M 340 212.140625 C 340 212.140625 346.640625 291.167969 255.957031 315 C 257.433594 321.050781 260.238281 335.808594 262.082031 345.621094 L 203.570312 345.621094 C 203.570312 345.621094 203.9375 333.523438 201.648438 320.3125 C 201.648438 320.3125 134.355469 325.699219 76.804688 306.808594 C 51.347656 298.472656 18.4375 264.234375 16.078125 233.832031 C 16.078125 233.832031 50.832031 299.136719 151.84375 297.21875 C 243.117188 295.519531 267.320312 281.648438 288.867188 260.542969 C 321.773438 228.445312 316.902344 183.066406 311.738281 175.835938 C 329.964844 153.847656 332.179688 116.289062 332.179688 116.289062 C 340.21875 134.660156 329.890625 166.6875 329.890625 166.6875 C 329.890625 166.6875 340 178.195312 342.878906 209.925781 Z M 340 212.140625 C 340 212.140625 346.640625 291.167969 255.957031 315 C 257.433594 321.050781 260.238281 335.808594 262.082031 345.621094 L 203.570312 345.621094 C 203.570312 345.621094 203.9375 333.523438 201.648438 320.3125 C 201.648438 320.3125 134.355469 325.699219 76.804688 306.808594 C 51.347656 298.472656 18.4375 264.234375 16.078125 233.832031 C 16.078125 233.832031 50.832031 299.136719 151.84375 297.21875 C 243.117188 295.519531 267.320312 281.648438 288.867188 260.542969 C 321.773438 228.445312 316.902344 183.066406 311.738281 175.835938 C 329.964844 153.847656 332.179688 116.289062 332.179688 116.289062 C 340.21875 134.660156 329.890625 166.6875 329.890625 166.6875 C 329.890625 166.6875 340 178.195312 342.878906 209.925781 Z M 172.210938 35.121094 C 172.210938 35.121094 170.070312 65.964844 158.632812 85.371094 C 177.964844 85.960938 186.230469 86.550781 186.230469 86.550781 C 186.230469 86.550781 179.957031 41.6875 172.210938 35.121094 Z M 172.210938 35.121094 " fill-opacity="0.3" fill-rule="nonzero"/></g><g clip-path="url(#9ec7d5d35a)"><path fill="#2b0806" d="M 311.738281 77.179688 C 311.738281 81.019531 294.769531 114.148438 291.300781 125.289062 C 309.378906 137.246094 312.847656 156.058594 309.746094 154.953125 C 306.648438 151.117188 289.308594 129.570312 280.898438 127.210938 C 292.1875 92.601562 311.738281 77.179688 311.738281 77.179688 Z M 333.507812 166.539062 C 347.082031 125.585938 331.292969 57.699219 323.839844 53.714844 C 286.28125 55.414062 235.519531 81.460938 227.992188 92.382812 C 215.078125 88.394531 202.019531 86.476562 190.730469 85.59375 C 189.917969 77.03125 187.113281 52.3125 175.457031 29.511719 C 160.992188 29.511719 111.558594 51.871094 91.117188 97.621094 C 47.878906 111.195312 -30.480469 185.945312 26.1875 274.566406 C 42.273438 298.101562 72.523438 310.277344 72.523438 310.277344 L 54.152344 345.695312 L 65.957031 345.695312 C 65.957031 345.695312 77.542969 319.648438 83.667969 304.964844 C 42.714844 292.714844 25.449219 259.144531 23.308594 254.714844 C 14.601562 236.195312 5.230469 203.136719 25.007812 165.800781 C 54.152344 110.828125 97.167969 102.710938 97.167969 102.710938 C 97.167969 102.710938 110.15625 58.4375 172.210938 35.121094 C 180.179688 62.273438 181.210938 78.140625 181.582031 84.410156 C 159.371094 81.902344 158.632812 85.371094 158.632812 85.371094 C 162.691406 89.429688 202.167969 92.308594 230.207031 100.570312 C 257.285156 72.976562 299.046875 60.503906 320.960938 61.167969 C 341.992188 117.910156 327.675781 166.761719 326.421875 170.816406 C 326.421875 170.816406 350.035156 216.050781 338.523438 254.050781 C 327.011719 292.050781 294.621094 311.3125 268.648438 315.296875 C 270.933594 331.972656 273.8125 345.621094 273.8125 345.621094 L 285.617188 345.621094 L 277.871094 320.976562 C 277.871094 320.976562 332.914062 307.84375 345.753906 253.976562 C 357.414062 205.054688 333.507812 166.539062 333.507812 166.539062 Z M 272.484375 142.632812 C 271.96875 142.039062 257.433594 149.714844 243.5625 156.503906 C 251.53125 150.304688 259.644531 143.148438 255.441406 143.960938 C 245.699219 146.023438 211.464844 170.671875 198.183594 180.484375 C 195.96875 181.960938 194.125 183.289062 192.796875 184.46875 C 191.394531 185.722656 190.507812 186.683594 190.433594 187.421875 C 189.105469 194.875 209.324219 216.199219 239.578125 208.230469 C 274.328125 199.226562 278.167969 149.050781 272.484375 142.632812 Z M 97.980469 123.742188 C 93.554688 120.714844 97.539062 130.234375 103.882812 139.238281 C 93.773438 129.128906 84.550781 120.640625 82.410156 120.421875 C 77.171875 119.757812 55.703125 175.246094 82.410156 191.480469 C 109.121094 207.710938 131.921875 185.871094 134.949219 173.621094 C 136.792969 169.859375 104.179688 127.945312 97.980469 123.742188 Z M 191.46875 203.800781 C 185.859375 212.433594 178.703125 224.386719 176.414062 224.167969 C 174.054688 224.019531 169.996094 198.636719 169.996094 198.636719 C 164.832031 197.085938 155.828125 196.644531 145.648438 198.710938 C 144.320312 203.949219 139.523438 222.46875 136.792969 224.167969 C 134.726562 225.496094 130.300781 212.65625 128.160156 204.910156 C 120.929688 208.671875 113.917969 213.984375 108.164062 221.511719 C 89.421875 245.789062 87.355469 296.40625 131.773438 310.425781 C 170.363281 322.601562 202.242188 310.277344 215.742188 281.425781 C 229.246094 252.574219 215.152344 216.492188 191.46875 203.800781 Z M 191.46875 203.800781 " fill-opacity="1" fill-rule="nonzero"/></g><path fill="#ffffff" d="M 84.476562 130.75 C 85.804688 129.792969 126.832031 171.480469 126.832031 174.359375 C 126.832031 177.238281 110.96875 201.292969 87.058594 186.3125 C 64.851562 172.441406 84.476562 130.75 84.476562 130.75 Z M 201.503906 189.117188 C 198.773438 194.652344 223.785156 211.253906 244.742188 198.195312 C 263.628906 186.460938 268.796875 158.9375 265.476562 154.363281 C 263.851562 152.59375 203.125 186.609375 201.503906 189.117188 Z M 201.503906 189.117188 " fill-opacity="1" fill-rule="nonzero"/><path fill="#ef5454" d="M 297.277344 139.089844 C 296.539062 135.03125 307.902344 132.300781 308.566406 136.0625 C 309.378906 140.34375 311.074219 144.179688 314.027344 147.5 C 316.386719 150.082031 319.632812 151.265625 323.398438 151.410156 C 327.160156 151.558594 329.816406 146.984375 330.480469 144.105469 C 331.585938 139.164062 332.105469 134.070312 332.769531 129.054688 C 333.285156 125.289062 344.648438 123.296875 344.058594 127.578125 C 343.023438 134.734375 342.804688 142.777344 339.410156 149.273438 C 336.382812 155.101562 330.554688 158.9375 324.0625 159.824219 C 311.222656 161.742188 299.492188 151.265625 297.277344 139.089844 Z M 368.40625 167.277344 C 364.570312 167.71875 360.808594 168.015625 356.96875 167.71875 C 354.386719 167.496094 351.066406 167.203125 350.109375 163.808594 C 348.261719 157.242188 355.347656 148.976562 360.214844 147.945312 C 362.0625 147.5 364.570312 145.289062 364.054688 142.777344 C 363.464844 139.972656 360.289062 140.195312 358.59375 140.640625 C 350.035156 142.558594 339.039062 154.214844 340.589844 165.800781 C 342.359375 178.859375 360.144531 176.203125 367.523438 175.320312 C 369.515625 175.097656 372.464844 173.695312 372.6875 170.890625 C 372.980469 167.941406 370.179688 167.054688 368.40625 167.277344 Z M 348.261719 185.132812 C 343.320312 180.632812 336.457031 178.566406 329.890625 180.1875 C 323.617188 181.738281 318.675781 186.238281 315.574219 191.699219 C 311.886719 198.195312 311.296875 206.015625 309.304688 213.097656 C 308.566406 215.902344 312.625 217.082031 314.542969 216.9375 C 317.421875 216.789062 319.929688 215.089844 320.742188 212.289062 C 322.070312 207.417969 322.660156 202.253906 324.429688 197.457031 C 325.609375 194.210938 327.824219 189.414062 331.441406 188.304688 C 334.90625 187.273438 338.746094 190.59375 340.738281 193.027344 C 343.910156 196.9375 345.460938 201.734375 347.082031 206.457031 C 348.855469 211.769531 360.144531 208.671875 358.371094 203.433594 C 356.085938 196.867188 353.574219 190.003906 348.261719 185.132812 Z M 311 171.113281 C 309.15625 158.054688 290.339844 160.710938 282.519531 161.59375 C 280.453125 161.816406 277.355469 163.21875 277.058594 166.023438 C 276.765625 168.753906 279.714844 169.710938 281.5625 169.488281 C 285.617188 169.046875 289.601562 168.753906 293.660156 169.046875 C 296.390625 169.269531 299.859375 169.5625 300.894531 172.957031 C 302.8125 179.523438 295.359375 187.789062 290.195312 188.824219 C 288.273438 189.265625 285.546875 191.480469 286.136719 193.988281 C 286.726562 196.792969 290.121094 196.570312 291.964844 196.128906 C 300.964844 194.28125 312.625 182.699219 311 171.113281 Z M 207.40625 279.066406 C 215.375 261.945312 212.203125 244.089844 203.421875 230.144531 C 203.421875 230.144531 162.617188 235.457031 129.191406 301.054688 C 129.191406 301.054688 135.019531 303.710938 137.53125 304.523438 C 169.40625 314.632812 196.265625 302.898438 207.40625 279.066406 Z M 207.40625 279.066406 " fill-opacity="1" fill-rule="nonzero"/><path fill="#2b0806" d="M 350.109375 183.140625 C 344.351562 177.902344 336.53125 175.761719 329.226562 177.605469 C 322.660156 179.230469 316.976562 183.730469 313.214844 190.445312 C 310.410156 195.316406 309.304688 200.703125 308.199219 205.941406 C 307.753906 208.230469 307.238281 210.367188 306.722656 212.433594 C 306.277344 214.058594 306.574219 215.679688 307.679688 216.9375 C 309.378906 219.003906 312.476562 219.738281 314.394531 219.738281 C 314.542969 219.738281 314.691406 219.738281 314.765625 219.738281 C 318.96875 219.519531 322.363281 216.863281 323.398438 213.097656 C 323.988281 211.03125 324.429688 208.964844 324.800781 206.972656 C 325.464844 203.949219 326.054688 201.144531 327.011719 198.488281 C 328.488281 194.28125 330.40625 191.550781 332.25 191.035156 C 334.023438 190.519531 336.828125 192.585938 338.671875 194.875 C 341.402344 198.265625 342.878906 202.695312 344.351562 206.972656 L 344.5 207.492188 C 345.3125 209.777344 347.230469 211.402344 349.8125 211.917969 C 353.355469 212.582031 357.488281 211.328125 359.625 208.820312 C 361.175781 207.046875 361.617188 204.835938 360.878906 202.769531 C 358.960938 196.71875 356.230469 188.675781 350.109375 183.140625 Z M 355.566406 205.128906 C 354.683594 206.164062 352.46875 206.828125 350.917969 206.457031 C 349.886719 206.238281 349.738281 205.792969 349.664062 205.644531 L 349.519531 205.128906 C 347.894531 200.40625 346.269531 195.539062 342.878906 191.40625 C 340 187.789062 335.203125 184.46875 330.703125 185.722656 C 327.011719 186.757812 324.0625 190.445312 321.847656 196.570312 C 320.742188 199.59375 320.078125 202.769531 319.488281 205.792969 C 319.042969 207.785156 318.675781 209.703125 318.160156 211.625 C 317.640625 213.46875 315.945312 214.207031 314.46875 214.28125 C 313.65625 214.351562 312.476562 213.984375 312.035156 213.617188 C 312.625 211.402344 313.066406 209.1875 313.582031 206.972656 C 314.617188 201.957031 315.648438 197.160156 318.011719 193.027344 C 321.035156 187.714844 325.539062 184.027344 330.628906 182.773438 C 336.164062 181.445312 342.066406 182.992188 346.492188 187.050781 C 351.140625 191.332031 353.503906 197.382812 355.789062 204.246094 C 355.863281 204.539062 355.863281 204.6875 355.566406 205.128906 Z M 320.816406 161.742188 C 321.921875 161.742188 323.027344 161.667969 324.136719 161.519531 C 331.585938 160.488281 338.082031 155.988281 341.476562 149.492188 C 344.425781 143.8125 345.164062 137.464844 345.902344 131.339844 C 346.050781 129.792969 346.269531 128.316406 346.417969 126.914062 C 346.714844 124.554688 345.386719 121.96875 341.621094 121.453125 C 337.269531 120.863281 330.332031 123.152344 329.742188 127.578125 C 329.523438 128.90625 329.375 130.308594 329.226562 131.636719 C 328.785156 135.179688 328.265625 138.867188 327.53125 142.410156 C 326.128906 148.609375 324.429688 149.9375 324.0625 149.9375 C 321.554688 149.789062 318.085938 147.207031 315.796875 144.625 C 313.289062 141.820312 311.738281 138.574219 311 134.515625 C 310.410156 131.414062 307.089844 129.867188 302.515625 130.75 C 298.089844 131.5625 293.585938 134.367188 294.398438 138.574219 C 296.464844 150.304688 307.3125 161.742188 320.816406 161.742188 Z M 302.222656 136.359375 C 303.769531 135.84375 305.097656 135.84375 305.6875 135.988281 C 306.648438 140.710938 308.640625 144.84375 311.738281 148.238281 C 313.214844 149.863281 318.230469 153.257812 323.765625 153.550781 C 327.972656 153.773438 331.070312 151.632812 332.914062 143.664062 C 333.726562 139.902344 334.242188 136.136719 334.6875 132.375 C 334.835938 131.046875 334.980469 129.792969 335.203125 128.464844 C 335.867188 127.503906 339.410156 126.546875 340.957031 126.839844 C 340.8125 128.09375 341.105469 142.851562 338.671875 147.574219 C 336.089844 152.519531 329.523438 158.054688 323.765625 158.789062 C 311.960938 160.414062 301.703125 147.945312 299.710938 137.6875 C 299.933594 137.390625 300.746094 136.800781 302.222656 136.359375 Z M 373.425781 166.6875 C 371.726562 165.0625 369.292969 164.695312 367.742188 164.914062 C 363.464844 165.429688 359.996094 165.578125 356.824219 165.359375 C 353.722656 165.136719 352.765625 164.695312 352.394531 163.4375 C 351.878906 161.59375 352.394531 159.234375 353.871094 156.796875 C 355.863281 153.476562 358.742188 151.339844 360.4375 150.894531 C 363.390625 150.230469 367.226562 146.835938 366.339844 142.484375 C 366.046875 140.933594 365.234375 139.753906 363.980469 138.941406 C 361.839844 137.539062 359.035156 137.910156 357.632812 138.203125 C 348.410156 140.269531 335.71875 152.59375 337.5625 166.390625 C 338.964844 176.941406 348.335938 179.082031 356.75 179.082031 C 360.660156 179.082031 364.347656 178.640625 366.929688 178.269531 L 367.523438 178.195312 C 370.988281 177.753906 374.679688 175.246094 375.046875 171.335938 C 375.269531 169.5625 374.679688 167.867188 373.425781 166.6875 Z M 369.660156 170.816406 C 369.515625 172 367.742188 172.664062 366.859375 172.808594 L 366.265625 172.882812 C 355.421875 174.285156 344.207031 174.507812 342.949219 165.652344 C 341.550781 155.394531 351.65625 145.140625 358.816406 143.515625 C 359.332031 143.367188 359.847656 143.367188 360.214844 143.367188 C 360.660156 143.367188 360.953125 143.441406 361.027344 143.441406 C 361.027344 143.441406 361.027344 143.441406 361.027344 143.589844 C 361.175781 144.328125 359.996094 145.433594 359.257812 145.582031 C 355.789062 146.394531 351.730469 149.789062 349.222656 153.996094 C 347.007812 157.683594 346.269531 161.59375 347.15625 164.914062 C 348.632812 170.226562 353.871094 170.671875 356.453125 170.816406 C 359.996094 171.039062 363.757812 170.890625 368.480469 170.375 C 368.996094 170.300781 369.585938 170.523438 369.660156 170.671875 C 369.660156 170.597656 369.660156 170.671875 369.660156 170.816406 Z M 313.363281 171.628906 C 311.148438 156.28125 291.078125 158.71875 282.445312 159.75 L 281.78125 159.824219 C 278.3125 160.265625 274.328125 162.554688 273.886719 166.6875 C 273.738281 168.457031 274.257812 170.082031 275.511719 171.261719 C 277.28125 172.957031 279.789062 173.328125 281.414062 173.179688 C 285.988281 172.664062 289.675781 172.515625 292.996094 172.738281 C 296.316406 172.957031 297.425781 173.402344 297.792969 174.730469 C 298.308594 176.425781 297.792969 178.640625 296.464844 180.925781 C 294.472656 184.320312 291.152344 186.757812 289.160156 187.199219 C 287.167969 187.640625 285.101562 189.042969 283.921875 190.886719 C 282.960938 192.363281 282.667969 193.988281 282.960938 195.609375 C 283.625 198.488281 285.988281 200.1875 289.382812 200.1875 C 290.195312 200.1875 291.078125 200.113281 291.964844 199.890625 C 301.925781 197.675781 315.355469 185.429688 313.363281 171.628906 Z M 291.078125 194.503906 C 289.675781 194.800781 288.71875 194.652344 288.496094 194.503906 C 288.496094 194.503906 288.496094 194.503906 288.496094 194.429688 C 288.421875 194.28125 288.496094 194.0625 288.71875 193.765625 C 289.160156 193.101562 290.046875 192.585938 290.488281 192.4375 C 294.25 191.625 298.753906 188.011719 301.335938 183.65625 C 303.476562 180.042969 304.140625 176.351562 303.179688 173.105469 C 301.628906 167.792969 296.171875 167.425781 293.515625 167.203125 C 292.332031 167.128906 291.152344 167.054688 289.898438 167.054688 C 287.167969 167.054688 284.21875 167.277344 280.824219 167.644531 C 280.160156 167.71875 279.421875 167.425781 279.347656 167.277344 C 279.347656 167.277344 279.347656 167.203125 279.347656 167.128906 C 279.421875 166.09375 281.265625 165.285156 282.445312 165.136719 L 283.109375 165.0625 C 294.695312 163.660156 306.722656 163.4375 307.976562 172.292969 C 309.453125 182.625 298.679688 192.808594 291.078125 194.503906 Z M 291.078125 194.503906 " fill-opacity="1" fill-rule="nonzero"/></svg>