<svg xmlns="http://www.w3.org/2000/svg" xmlns:xlink="http://www.w3.org/1999/xlink" width="500" zoomAndPan="magnify" viewBox="0 0 375 374.999991" height="500" preserveAspectRatio="xMidYMid meet" version="1.0"><defs><clipPath id="6a1cb05a2e"><path d="M 8 31 L 369 31 L 369 350.46875 L 8 350.46875 Z M 8 31 " clip-rule="nonzero"/></clipPath><clipPath id="2e5ed41ebe"><path d="M 11 41 L 368 41 L 368 350.46875 L 11 350.46875 Z M 11 41 " clip-rule="nonzero"/></clipPath><clipPath id="aa031dfd1d"><path d="M 9 73 L 306 73 L 306 350.46875 L 9 350.46875 Z M 9 73 " clip-rule="nonzero"/></clipPath><clipPath id="053851d4b4"><path d="M 4 27.21875 L 372.554688 27.21875 L 372.554688 350.46875 L 4 350.46875 Z M 4 27.21875 " clip-rule="nonzero"/></clipPath></defs><g clip-path="url(#6a1cb05a2e)"><path fill="#ffffff" d="M 368.941406 325.234375 L 367.644531 350.429688 L 276.019531 350.429688 L 277.644531 325.234375 Z M 347.90625 214.792969 C 347.90625 214.792969 350.238281 173.644531 315.671875 131.019531 C 323.597656 91.628906 312.972656 38.855469 302.890625 31.09375 C 283.84375 32.203125 244.070312 46.160156 221.976562 81.265625 C 199.609375 73.289062 168.039062 71.183594 136.199219 79.136719 C 136.199219 79.136719 98.511719 39.507812 54.324219 31.09375 C 32.878906 46.75 39.597656 123.054688 39.378906 132.640625 C 24.429688 159.316406 -32.101562 240.835938 60.820312 298 C 48.472656 329.789062 43.5625 349.988281 43.5625 349.988281 L 272.660156 350.433594 C 272.660156 350.433594 276.898438 305.734375 281.445312 283.609375 C 285.996094 261.488281 290.226562 224.390625 299.953125 220.042969 C 309.679688 215.699219 317.28125 226.007812 317.28125 226.007812 C 317.28125 226.007812 328.277344 199.003906 336.859375 223.082031 C 334.394531 213.972656 347.90625 214.792969 347.90625 214.792969 Z M 347.90625 214.792969 " fill-opacity="1" fill-rule="nonzero"/></g><path fill="#efb07d" d="M 287.390625 249.105469 C 294.539062 212.996094 309.160156 216.574219 317.28125 226.007812 C 318.582031 214.945312 330.277344 211.367188 337.101562 220.152344 C 363.417969 194.125 367.644531 271.34375 367.644531 271.34375 L 367.644531 321.332031 C 367.644531 321.332031 361.75 340.523438 321.347656 340.523438 C 286.097656 340.523438 276.019531 324.910156 276.019531 324.910156 C 276.019531 324.910156 280.242188 285.21875 287.390625 249.105469 Z M 137.335938 79.609375 C 129.539062 67.925781 79.339844 27.21875 54.972656 31.132812 C 27.355469 63.015625 40.675781 132.640625 40.675781 132.640625 C 40.675781 132.640625 17.867188 163.1875 15.15625 192.699219 C 16.03125 214.460938 75.128906 252.585938 142.699219 195.953125 C 206.90625 142.140625 155.207031 76.355469 155.207031 76.355469 C 155.207031 76.355469 146.433594 76.976562 137.335938 79.609375 Z M 297.375 50.003906 L 276.019531 93.382812 C 276.019531 93.382812 295.101562 109.214844 300.128906 122.878906 C 305.152344 109.863281 306.492188 76.679688 297.375 50.003906 Z M 297.375 50.003906 " fill-opacity="1" fill-rule="nonzero"/><g clip-path="url(#2e5ed41ebe)"><path fill="#ef5454" d="M 367.644531 350.429688 C 367.644531 350.429688 367.644531 350.429688 328.167969 350.429688 C 358.871094 347.644531 362.613281 264.730469 362.613281 264.730469 Z M 77.933594 93.382812 C 77.933594 93.382812 61.035156 58.246094 58.222656 50.003906 C 51.074219 67.355469 49.894531 110.730469 55.46875 122.878906 C 66.425781 109.507812 77.933594 93.382812 77.933594 93.382812 Z M 272.839844 350.429688 C 276.453125 327.757812 281.414062 296.558594 285.410156 271.410156 C 285.390625 271.414062 285.371094 271.421875 285.355469 271.429688 L 289.441406 226.277344 C 289.179688 226.59375 288.847656 227.03125 288.445312 227.613281 C 285.351562 232.089844 278.34375 245 272.679688 275.675781 C 249.480469 282.589844 218.925781 287.351562 178.699219 287.628906 C 22.734375 286.554688 12.113281 218.070312 12.113281 218.070312 C 12.113281 218.070312 9.296875 227.304688 15.28125 242.390625 C 13.539062 240.914062 12.210938 239.742188 11.480469 239.023438 C 16.074219 273.617188 61.039062 300.292969 61.039062 300.292969 L 43.5625 350.433594 C 43.5625 350.433594 61.902344 350.433594 81.832031 350.433594 C 93.960938 310.785156 108.621094 311.824219 108.621094 311.824219 C 139.152344 318.515625 168.46875 320.320312 178.699219 320.320312 C 188.929688 320.320312 218.25 318.515625 248.777344 311.824219 L 248.78125 311.824219 C 248.78125 311.824219 256.277344 311.296875 264.984375 325.492188 C 261.820312 345.695312 260.800781 350.410156 260.800781 350.410156 Z M 221.144531 81.265625 L 239.125 86.441406 C 239.125 86.441406 245.839844 62.242188 275.1875 41.808594 C 254.71875 47.402344 232.625 62.207031 221.144531 81.265625 Z M 80.785156 41.808594 C 110.136719 62.242188 116.847656 86.441406 116.847656 86.441406 L 134.828125 81.265625 C 123.347656 62.207031 101.253906 47.402344 80.785156 41.808594 Z M 190.566406 232.417969 C 190.566406 232.417969 175.839844 235.804688 163.277344 232.046875 C 165.007812 246.503906 186.234375 247.804688 190.566406 232.417969 Z M 190.566406 232.417969 " fill-opacity="0.3" fill-rule="nonzero"/></g><g clip-path="url(#aa031dfd1d)"><path fill="#ffffff" d="M 42.929688 73.238281 C 42.929688 73.238281 39.636719 118.558594 55.101562 140.238281 C 38.726562 152.15625 10.65625 190.890625 11.449219 222.429688 C 5.269531 201.9375 14.132812 166.898438 38.613281 135.570312 C 36.128906 117.023438 38.613281 91.507812 42.929688 73.238281 Z M 282.082031 307.582031 C 290.851562 242.425781 305.835938 222.484375 305.835938 222.484375 C 281.179688 215.820312 279.808594 278.605469 282.082031 307.582031 Z M 29.03125 264.730469 C 29.03125 264.730469 59.195312 292.375 77.714844 295.304688 C 70.242188 304.738281 55.101562 350.433594 55.101562 350.433594 L 41.652344 350.433594 L 59.195312 299.207031 C 59.195312 299.207031 29.722656 284.59375 29.03125 264.730469 Z M 29.03125 264.730469 " fill-opacity="1" fill-rule="nonzero"/></g><g clip-path="url(#053851d4b4)"><path fill="#2b0806" d="M 372.515625 350.429688 C 368.375 350.429688 362.933594 350.429688 362.933594 350.429688 C 362.851562 334.585938 365.636719 252.695312 357.339844 225.101562 C 352.945312 210.496094 339.253906 217.476562 337.390625 229.636719 C 336.152344 223.535156 334.742188 216.96875 328.515625 217.617188 C 320.820312 218.421875 317.671875 232.035156 317.671875 232.035156 C 317.671875 232.035156 311.492188 222.113281 305.835938 222.484375 C 296.910156 223.074219 291.03125 236.203125 286.75 264.164062 C 284.34375 279.882812 278.152344 350.429688 278.152344 350.429688 L 270.179688 350.429688 C 270.179688 350.429688 274.5625 301.804688 275.972656 291.269531 L 276.011719 290.96875 L 277.144531 282.757812 C 279.710938 264.703125 282.566406 248.332031 285.324219 237.972656 C 292.496094 211.015625 308.769531 208.175781 316.105469 221.125 C 319.871094 207.242188 336.207031 204.929688 337.929688 217.144531 C 338.464844 214.589844 341.007812 211.519531 344.585938 210.242188 C 343.164062 189.421875 334.0625 164.3125 312.128906 134.265625 C 316.925781 124.179688 322.039062 76.722656 301.90625 35.039062 C 291.726562 35.039062 257.613281 43.382812 224.6875 79.226562 C 230.28125 81.164062 235.539062 83.539062 239.957031 86.441406 C 238.582031 86.496094 208.511719 77.945312 178.441406 77.945312 C 148.367188 77.945312 118.296875 86.496094 116.921875 86.441406 C 121.339844 83.539062 126.597656 81.164062 132.191406 79.226562 C 99.265625 43.382812 65.152344 35.039062 54.972656 35.039062 C 34.839844 76.722656 39.953125 124.179688 44.75 134.265625 C -34.703125 243.105469 54.171875 287.207031 66.832031 297.09375 C 59.683594 311.734375 46.523438 350.429688 46.523438 350.429688 L 37.699219 350.429688 C 37.699219 350.429688 46.238281 323.464844 56.632812 299.390625 C -22.679688 252.695312 2.988281 176.234375 35.476562 135.570312 C 25.730469 77.988281 45.875 28.53125 53.671875 27.21875 C 105.34375 37.113281 131.746094 67.941406 138.65625 77.207031 C 147.933594 74.597656 163.183594 70.792969 178.441406 70.792969 C 193.675781 70.792969 208.917969 74.589844 218.222656 77.207031 C 225.132812 67.941406 251.535156 37.113281 303.207031 27.21875 C 311.003906 28.53125 331.148438 77.988281 321.402344 135.570312 C 336.820312 154.863281 350.6875 182.222656 352.542969 210.636719 C 355.214844 211.816406 358.03125 214.136719 360.800781 218.097656 C 365.96875 225.492188 366.753906 235.027344 369.1875 254.238281 C 371.4375 271.96875 372.515625 339.957031 372.515625 350.429688 Z M 297.375 50.003906 C 297.375 50.003906 282.558594 71.003906 271.667969 93.363281 C 278.972656 98.152344 293.992188 113.769531 300.128906 122.878906 C 303.015625 117.671875 288.011719 95.601562 280.371094 91.320312 C 288.324219 82.863281 297.375 50.003906 297.375 50.003906 Z M 58.222656 50.003906 C 58.222656 50.003906 73.035156 71.003906 83.925781 93.363281 C 76.621094 98.152344 61.605469 113.769531 55.46875 122.878906 C 52.578125 117.671875 67.582031 95.601562 75.226562 91.320312 C 67.269531 82.863281 58.222656 50.003906 58.222656 50.003906 Z M 99.554688 155.144531 C 83.015625 159.050781 71.808594 175.582031 68.394531 189.285156 C 67.875 191.371094 68.992188 193.03125 71.3125 193.609375 C 75.066406 194.550781 81.894531 192.636719 82.902344 188.605469 C 84.210938 183.339844 86.445312 178.558594 89.535156 174.402344 C 91.867188 171.269531 96.414062 165.851562 100.703125 164.777344 C 104.148438 163.914062 107.445312 169.558594 109.214844 172.59375 L 109.632812 173.304688 C 112.667969 178.429688 115.121094 184.371094 116.921875 190.964844 C 117.550781 193.277344 119.816406 194.191406 122.324219 194.191406 C 123.375 194.191406 124.464844 194.03125 125.5 193.746094 C 129.703125 192.597656 132.113281 189.855469 131.355469 187.078125 C 124.730469 162.839844 113.738281 151.796875 99.554688 155.144531 Z M 287.183594 187.078125 C 280.5625 162.835938 269.566406 151.792969 255.386719 155.144531 C 238.847656 159.050781 227.640625 175.582031 224.226562 189.285156 C 223.910156 190.554688 224.203125 191.707031 225.058594 192.53125 C 226.84375 194.257812 230.410156 194.027344 232.925781 193.304688 C 236.050781 192.410156 238.222656 190.652344 238.730469 188.605469 C 240.046875 183.335938 242.277344 178.558594 245.367188 174.402344 C 247.695312 171.269531 252.246094 165.851562 256.53125 164.777344 C 259.980469 163.917969 263.277344 169.558594 265.046875 172.59375 L 265.464844 173.304688 C 268.5 178.429688 270.949219 184.371094 272.75 190.964844 C 273.152344 192.433594 274.320312 193.492188 276.039062 193.941406 C 276.695312 194.113281 277.414062 194.195312 278.160156 194.195312 C 280.949219 194.195312 284.132812 193.058594 285.894531 191.273438 C 287.125 190.027344 287.582031 188.539062 287.183594 187.078125 Z M 201.777344 194.378906 C 200.019531 195.316406 199.183594 198.324219 200.902344 201.554688 C 201.898438 203.429688 200.835938 205.367188 200.113281 206.355469 C 198.21875 208.933594 194.816406 210.511719 192.207031 210.019531 C 187.707031 209.175781 184.996094 203.878906 183.136719 199.355469 C 182.269531 197.246094 180.445312 195.933594 178.378906 195.933594 C 176.316406 195.933594 174.492188 197.246094 173.625 199.355469 C 172.101562 203.066406 169.261719 209.972656 164.554688 210.851562 C 162.558594 211.230469 160.066406 210.257812 158.078125 208.34375 C 155.136719 205.378906 156.019531 201.511719 156.335938 200.460938 C 156.367188 200.378906 156.390625 200.300781 156.425781 200.1875 L 157.109375 198.363281 L 156.765625 198.363281 C 156.859375 196.449219 156.097656 194.816406 154.730469 194.261719 C 153.554688 193.785156 151.835938 194.152344 150.527344 196.605469 C 148.101562 201.167969 147.964844 206.597656 150.167969 211.125 C 152.210938 215.335938 156.0625 218.222656 160.730469 219.050781 C 167.425781 220.246094 173.503906 217.414062 178.378906 210.855469 C 182.53125 216.4375 187.550781 219.316406 193.082031 219.316406 C 194.050781 219.316406 195.035156 219.230469 196.03125 219.050781 C 200.695312 218.222656 204.546875 215.335938 206.59375 211.125 C 208.792969 206.597656 208.660156 201.167969 206.234375 196.605469 C 204.824219 193.957031 202.953125 193.753906 201.777344 194.378906 Z M 201.777344 194.378906 " fill-opacity="1" fill-rule="nonzero"/></g><path fill="#ef5454" d="M 326.921875 259.949219 C 324.492188 257.21875 314.777344 249.800781 308.527344 261.902344 C 302.28125 274.003906 319.328125 286.105469 326.921875 286.105469 C 334.515625 286.105469 351.558594 274.003906 345.3125 261.902344 C 339.066406 249.800781 329.351562 257.21875 326.921875 259.949219 Z M 332.882812 239.5625 C 332.882812 235.871094 330.769531 232.875 328.167969 232.875 C 325.5625 232.875 323.453125 235.871094 323.453125 239.5625 C 323.453125 243.257812 325.5625 246.25 328.167969 246.25 C 330.769531 246.25 332.882812 243.257812 332.882812 239.5625 Z M 347.5 236.894531 C 344.855469 236.496094 342.214844 238.957031 341.59375 242.398438 C 340.976562 245.835938 342.613281 248.953125 345.253906 249.351562 C 347.894531 249.753906 350.539062 247.292969 351.160156 243.851562 C 351.777344 240.414062 350.140625 237.296875 347.5 236.894531 Z M 309.398438 249.6875 C 312.066406 248.914062 313.25 245.5 312.042969 242.066406 C 310.835938 238.628906 307.691406 236.472656 305.023438 237.246094 C 302.355469 238.023438 301.167969 241.433594 302.375 244.867188 C 303.585938 248.304688 306.726562 250.460938 309.398438 249.6875 Z M 309.398438 249.6875 " fill-opacity="1" fill-rule="nonzero"/></svg>