<svg xmlns="http://www.w3.org/2000/svg" xmlns:xlink="http://www.w3.org/1999/xlink" width="500" zoomAndPan="magnify" viewBox="0 0 375 374.999991" height="500" preserveAspectRatio="xMidYMid meet" version="1.0"><defs><clipPath id="11791fd398"><path d="M 6 30.664062 L 367 30.664062 L 367 343 L 6 343 Z M 6 30.664062 " clip-rule="nonzero"/></clipPath><clipPath id="b7f9845140"><path d="M 4 30.664062 L 371 30.664062 L 371 344 L 4 344 Z M 4 30.664062 " clip-rule="nonzero"/></clipPath></defs><g clip-path="url(#11791fd398)"><path fill="#ffffff" d="M 326.34375 342.90625 L 323.242188 342.464844 C 323.242188 342.464844 326.5625 337.375 336.601562 315.171875 C 346.640625 292.96875 336.972656 286.84375 327.964844 289.945312 C 333.796875 277.109375 315.933594 277.699219 312.613281 280.945312 C 309.4375 270.691406 312.023438 270.542969 297.777344 271.871094 C 283.527344 273.125 221.449219 342.390625 221.449219 342.390625 C 221.449219 342.390625 81.644531 342.832031 28.351562 342.832031 C 15.582031 327.488281 2.8125 304.253906 7.3125 293.1875 C 11.890625 282.199219 25.398438 277.550781 25.398438 277.550781 C 25.398438 277.550781 23.257812 276.078125 20.304688 254.609375 C 19.566406 183.578125 51.898438 161.375 82.089844 136.148438 C 91.390625 90.121094 126.449219 41.878906 146.234375 30.8125 C 172.070312 49.476562 204.472656 104.578125 204.472656 104.578125 L 246.179688 115.496094 C 246.179688 115.496094 296.300781 60.320312 318.664062 49.253906 C 339.480469 68.800781 346.640625 98.527344 349.816406 116.894531 C 357.121094 159.824219 349.816406 182.988281 349.816406 182.988281 C 349.816406 182.988281 366.941406 210.425781 366.941406 249.449219 C 366.941406 271.207031 364.28125 293.1875 351.4375 314.507812 C 345.089844 325.054688 326.34375 342.90625 326.34375 342.90625 Z M 250.902344 178.636719 C 243.964844 176.273438 229.644531 199.066406 242.5625 195.894531 C 255.554688 192.722656 257.839844 180.996094 250.902344 178.636719 Z M 250.902344 178.636719 " fill-opacity="1" fill-rule="nonzero"/></g><path fill="#ef5454" d="M 342.066406 102.070312 C 342.066406 102.070312 355.277344 160.195312 323.019531 198.847656 C 335.496094 215.886719 330.992188 286.773438 236.582031 309.710938 C 156.9375 332.355469 80.539062 317.605469 38.019531 277.773438 C 44.367188 292.15625 54.703125 312.367188 67.988281 325.203125 C 52.710938 316.277344 33.371094 297.761719 25.988281 276.960938 C 27.539062 295.769531 39.054688 324.167969 66.585938 342.683594 C 109.472656 342.757812 296.371094 342.683594 296.371094 342.683594 C 296.371094 342.683594 349.960938 316.570312 363.542969 270.027344 C 372.253906 217.066406 349.890625 185.570312 349.890625 185.570312 C 349.890625 185.570312 355.277344 153.851562 353.503906 136.589844 C 351.4375 118.074219 342.066406 102.070312 342.066406 102.070312 Z M 288.105469 318.636719 C 281.167969 322.105469 281.832031 311.1875 288.105469 309.859375 C 294.378906 308.605469 295.042969 315.316406 288.105469 318.636719 Z M 288.105469 318.636719 " fill-opacity="0.3" fill-rule="nonzero"/><path fill="#2b0806" d="M 76.847656 81.269531 C 55 82.597656 49.386719 110.332031 48.648438 114.902344 C 48.648438 115.347656 48.648438 115.566406 48.648438 115.566406 C 48.648438 115.566406 48.648438 115.421875 48.574219 115.273438 C 48.574219 115.496094 48.503906 115.566406 48.503906 115.566406 C 48.503906 115.566406 48.503906 115.347656 48.503906 114.902344 C 47.765625 110.332031 42.449219 82.742188 20.304688 81.269531 C 42.226562 79.941406 47.839844 52.207031 48.574219 47.632812 C 48.574219 47.191406 48.574219 46.96875 48.574219 46.96875 C 48.574219 46.96875 48.574219 47.117188 48.648438 47.335938 C 48.648438 47.117188 48.722656 46.96875 48.722656 46.96875 C 48.722656 46.96875 48.722656 47.191406 48.722656 47.632812 C 49.386719 52.207031 54.703125 79.792969 76.847656 81.269531 Z M 23.847656 109.816406 C 23.847656 109.59375 23.847656 109.519531 23.847656 109.519531 C 23.847656 109.519531 23.847656 109.59375 23.847656 109.667969 C 23.847656 109.59375 23.847656 109.519531 23.847656 109.519531 C 23.847656 109.519531 23.847656 109.667969 23.847656 109.816406 C 23.40625 112.027344 20.675781 125.820312 9.824219 126.484375 C 20.746094 127.222656 23.40625 140.867188 23.773438 143.15625 C 23.773438 143.375 23.773438 143.449219 23.773438 143.449219 C 23.773438 143.449219 23.773438 143.375 23.773438 143.304688 C 23.773438 143.375 23.773438 143.449219 23.773438 143.449219 C 23.773438 143.449219 23.773438 143.304688 23.773438 143.15625 C 24.144531 140.941406 26.949219 127.148438 37.726562 126.484375 C 26.875 125.820312 24.292969 112.101562 23.847656 109.816406 Z M 23.847656 109.816406 " fill-opacity="1" fill-rule="nonzero"/><path fill="#efb07d" d="M 81.941406 136.296875 Z M 81.941406 136.222656 C 82.015625 136.222656 82.015625 136.222656 81.941406 136.222656 C 82.015625 136.222656 82.015625 136.222656 81.941406 136.222656 Z M 329.367188 167.792969 C 346.714844 136 313.71875 70.867188 313.71875 70.867188 C 304.417969 81.488281 294.527344 122.5 293.050781 132.089844 C 305.601562 136.074219 323.464844 147.359375 329.367188 167.792969 Z M 82.015625 136.222656 C 82.015625 136.222656 82.089844 136.148438 82.015625 136.222656 C 82.089844 136.148438 82.015625 136.222656 82.015625 136.222656 Z M 204.472656 104.652344 C 204.472656 104.652344 169.929688 52.28125 145.644531 33.691406 C 135.382812 40.035156 126.523438 48 118.257812 60.320312 C 123.71875 53.753906 129.773438 48.371094 136.195312 45.199219 C 136.195312 45.199219 107.183594 77.0625 95.597656 124.492188 C 103.789062 123.609375 123.71875 125.15625 123.71875 125.15625 C 123.71875 125.15625 94.5625 126.558594 71.457031 148.910156 C 61.9375 153.1875 54.554688 157.316406 41.933594 174.875 C 37.871094 187.488281 77.734375 244.578125 156.273438 212.789062 C 230.898438 182.542969 210.378906 106.273438 210.378906 106.273438 Z M 336.824219 288.910156 C 332.835938 288.171875 328.039062 290.015625 328.039062 290.015625 C 328.039062 290.015625 330.328125 280.503906 323.242188 279.027344 C 316.15625 277.550781 309.734375 283.304688 309.734375 283.304688 C 309.734375 283.304688 314.53125 272.167969 302.792969 270.175781 C 286.335938 267.519531 221.15625 342.832031 221.15625 342.832031 L 326.34375 342.832031 C 326.34375 342.90625 348.855469 296.953125 336.824219 288.910156 Z M 336.824219 288.910156 " fill-opacity="1" fill-rule="nonzero"/><path fill="#fcc85e" d="M 23.847656 119.183594 C 23.847656 119.109375 23.847656 119.035156 23.847656 119.035156 C 23.847656 119.035156 23.847656 119.035156 23.847656 119.183594 C 23.847656 119.035156 23.847656 119.035156 23.847656 119.035156 C 23.847656 119.035156 23.847656 119.109375 23.847656 119.183594 C 23.625 120.140625 22.445312 126.191406 17.648438 126.484375 C 22.519531 126.855469 23.625 132.828125 23.773438 133.789062 C 23.773438 133.859375 23.773438 133.933594 23.773438 133.933594 C 23.773438 133.933594 23.773438 133.933594 23.773438 133.859375 C 23.773438 133.933594 23.773438 133.933594 23.773438 133.933594 C 23.773438 133.933594 23.773438 133.859375 23.773438 133.789062 C 23.921875 132.828125 25.175781 126.78125 29.902344 126.484375 C 25.175781 126.117188 23.996094 120.214844 23.847656 119.183594 Z M 48.648438 101.921875 C 48.648438 101.921875 48.648438 101.847656 48.648438 101.699219 C 48.648438 101.847656 48.648438 101.921875 48.648438 101.921875 C 48.722656 101.921875 48.722656 101.773438 48.722656 101.554688 C 49.167969 98.824219 52.488281 82.152344 65.703125 81.269531 C 52.339844 80.382812 49.242188 63.785156 48.722656 60.984375 C 48.722656 60.761719 48.722656 60.613281 48.722656 60.613281 C 48.722656 60.613281 48.722656 60.6875 48.722656 60.835938 C 48.722656 60.6875 48.722656 60.613281 48.722656 60.613281 C 48.722656 60.613281 48.722656 60.761719 48.722656 60.984375 C 48.28125 63.710938 44.960938 80.382812 31.746094 81.269531 C 45.105469 82.152344 48.207031 98.75 48.722656 101.554688 C 48.648438 101.773438 48.648438 101.921875 48.648438 101.921875 Z M 48.648438 101.921875 " fill-opacity="1" fill-rule="nonzero"/><path fill="#ef5454" d="M 203.957031 107.160156 C 194.066406 105.460938 174.503906 102.585938 156.714844 109.222656 C 163.875 86.578125 146.085938 35.976562 146.085938 35.976562 C 174.0625 47.042969 208.386719 103.472656 203.957031 107.160156 Z M 331.214844 289.28125 C 331.214844 289.28125 336.085938 294.738281 323.980469 314.507812 C 311.949219 334.273438 303.828125 342.90625 303.828125 342.90625 L 322.945312 342.90625 C 322.945312 342.90625 344.058594 306.320312 341.917969 293.1875 C 339.703125 280.132812 331.214844 289.28125 331.214844 289.28125 Z M 59.5 79.496094 C 53.964844 78.980469 46.953125 81.785156 48.355469 100.078125 C 48.503906 100.742188 48.574219 101.183594 48.648438 101.480469 C 48.648438 101.699219 48.648438 101.847656 48.648438 101.847656 C 48.648438 101.847656 48.648438 101.773438 48.648438 101.625 C 48.648438 101.773438 48.648438 101.847656 48.648438 101.847656 C 48.648438 101.847656 48.648438 101.699219 48.648438 101.480469 C 49.09375 98.75 52.414062 82.078125 65.628906 81.195312 C 63.265625 81.121094 61.273438 80.53125 59.5 79.496094 Z M 23.554688 132.460938 C 23.699219 133.125 23.847656 133.566406 23.847656 133.789062 C 23.847656 133.859375 23.847656 133.933594 23.847656 133.933594 C 23.847656 133.933594 23.847656 133.933594 23.847656 133.859375 C 23.847656 133.933594 23.847656 133.933594 23.847656 133.933594 C 23.847656 133.933594 23.847656 133.859375 23.847656 133.789062 C 23.996094 132.828125 25.25 126.78125 29.976562 126.484375 C 29.238281 126.410156 28.644531 126.261719 28.054688 125.96875 C 26.0625 125.746094 23.109375 126.410156 23.554688 132.460938 Z M 23.554688 132.460938 " fill-opacity="0.3" fill-rule="nonzero"/><g clip-path="url(#b7f9845140)"><path fill="#2b0806" d="M 202.257812 216.035156 C 202.847656 228.128906 185.207031 235.652344 177.53125 218.835938 C 160.183594 236.171875 153.394531 216.035156 153.394531 216.035156 C 121.578125 238.160156 120.25 293.1875 173.175781 293.1875 C 229.941406 293.1875 223.886719 232.261719 202.257812 216.035156 Z M 288.105469 134.082031 C 313.277344 142.859375 329.367188 167.867188 329.367188 167.867188 C 329.367188 167.867188 325.382812 151.492188 314.972656 142.710938 C 305.007812 134.378906 295.929688 128.992188 295.929688 128.992188 C 295.929688 128.992188 308.035156 80.75 313.644531 70.867188 C 313.71875 70.867188 297.777344 86.503906 288.105469 134.082031 Z M 343.984375 300.121094 C 346.125 282.9375 334.609375 283.675781 330.84375 286.917969 C 334.167969 278.363281 320.804688 272.167969 313.792969 279.394531 C 315.269531 267.003906 303.089844 260.144531 284.785156 274.824219 C 268.25 288.171875 236.140625 320.703125 217.167969 342.90625 C 223.738281 342.90625 226.25 342.90625 226.25 342.90625 C 226.25 342.90625 255.921875 310.082031 272.753906 293.261719 C 289.582031 276.445312 300.0625 271.652344 306.410156 275.632812 C 310.398438 278.214844 309.808594 286.84375 309.808594 286.84375 C 309.808594 286.84375 318.738281 279.175781 324.347656 282.492188 C 328.925781 285.148438 326.5625 290.3125 324.421875 295.035156 C 331.730469 287.730469 340.589844 290.753906 338.59375 301.671875 C 337.117188 310.230469 325.898438 332.726562 320.804688 342.757812 L 330.328125 342.757812 C 330.328125 342.757812 345.238281 330.585938 351.511719 319.082031 C 351.511719 307.574219 349.960938 309.636719 349.960938 309.636719 C 349.960938 309.636719 345.386719 316.867188 335.125 328.078125 C 336.898438 325.128906 343.023438 307.648438 343.984375 300.121094 Z M 231.34375 176.496094 C 216.429688 191.394531 216.429688 215.738281 231.34375 230.710938 C 246.253906 245.613281 270.613281 245.613281 285.597656 230.710938 C 300.507812 215.8125 300.507812 191.46875 285.597656 176.496094 C 270.683594 161.523438 246.398438 161.523438 231.34375 176.496094 Z M 83.566406 151.492188 C 68.652344 166.390625 68.652344 190.734375 83.566406 205.707031 C 98.476562 220.605469 122.835938 220.605469 137.820312 205.707031 C 152.804688 190.804688 152.730469 166.464844 137.820312 151.492188 C 122.90625 136.515625 98.476562 136.589844 83.566406 151.492188 Z M 353.210938 184.90625 C 368.933594 130.394531 334.386719 65.261719 334.386719 65.261719 C 330.769531 57.960938 326.414062 50.507812 321.101562 43.5 C 314.53125 42.910156 279.839844 73.007812 244.554688 109.886719 C 244.554688 109.886719 228.757812 104.578125 208.386719 103.472656 C 202.777344 90.929688 183.214844 59.066406 146.308594 30.886719 C 138.554688 31.996094 98.695312 65.410156 81.128906 135.113281 C 47.46875 153.039062 8.789062 201.5 19.050781 262.800781 C 19.789062 267.003906 21.414062 273.273438 22.59375 277.035156 L 19.417969 278.289062 C 19.417969 278.289062 -6.34375 289.871094 9.453125 316.941406 C 25.25 344.011719 26.875 342.980469 26.875 342.980469 L 33.8125 342.980469 C 33.8125 342.980469 13.808594 319.300781 11.078125 302.335938 C 9.085938 290.3125 18.828125 284.855469 23.773438 283.15625 C 48.355469 333.09375 94.859375 343.054688 94.859375 343.054688 L 113.3125 343.054688 C 113.3125 343.054688 36.027344 325.277344 25.546875 260.882812 C 21.929688 238.605469 26.136719 217.289062 32.558594 199.804688 C 32.558594 199.878906 32.558594 199.953125 32.558594 199.953125 C 56.03125 145.589844 106.226562 128.699219 106.226562 128.699219 C 99.433594 128.773438 92.863281 130.027344 86.886719 132.238281 C 95.671875 100.59375 114.863281 62.902344 146.160156 36.050781 C 166.53125 51.320312 193.105469 89.898438 200.929688 103.324219 C 194.507812 103.324219 187.644531 103.839844 180.851562 105.09375 C 181.222656 106.9375 228.09375 112.394531 246.179688 115.714844 C 259.390625 101.996094 296.003906 65.410156 318.664062 49.476562 C 331.65625 67.917969 339.777344 96.242188 344.574219 114.167969 C 346.050781 120.730469 347.082031 126.855469 347.894531 132.605469 C 349.445312 148.171875 348.632812 166.316406 345.902344 185.863281 C 347.96875 188.003906 350.035156 191.617188 350.996094 193.386719 C 351.070312 193.535156 351.144531 193.609375 351.144531 193.757812 C 355.425781 202.09375 361.035156 218.023438 362.660156 245.6875 C 365.757812 298.351562 342.136719 320.554688 342.136719 320.554688 C 342.136719 320.554688 344.425781 330.144531 338.449219 335.898438 C 381.40625 293.1875 376.167969 222.449219 353.210938 184.90625 Z M 353.210938 184.90625 " fill-opacity="1" fill-rule="nonzero"/></g><path fill="#ef5454" d="M 173.617188 285.519531 C 156.273438 285.519531 145.863281 278.511719 141.140625 268.847656 C 170 236.390625 207.425781 246.941406 210.230469 247.675781 C 211.855469 265.898438 203.367188 285.519531 173.617188 285.519531 Z M 173.617188 285.519531 C 156.273438 285.519531 145.863281 278.511719 141.140625 268.847656 C 170 236.390625 207.425781 246.941406 210.230469 247.675781 C 211.855469 265.898438 203.367188 285.519531 173.617188 285.519531 Z M 173.617188 285.519531 " fill-opacity="1" fill-rule="nonzero"/><path fill="#ffffff" d="M 89.101562 163.515625 C 87.253906 156.800781 107.40625 145.222656 112.203125 151.636719 C 120.546875 162.703125 91.460938 172.21875 89.101562 163.515625 Z M 137.523438 170.964844 C 135.75 161.890625 123.644531 160.34375 114.125 169.785156 C 104.601562 179.152344 90.503906 175.464844 85.777344 180.699219 C 80.90625 185.9375 89.25 208.066406 109.03125 208.066406 C 125.640625 208.066406 142.394531 196.558594 137.523438 170.964844 Z M 236.953125 188.222656 C 235.105469 181.511719 255.257812 169.929688 260.054688 176.347656 C 268.398438 187.339844 239.3125 196.855469 236.953125 188.222656 Z M 285.375 195.675781 C 283.601562 186.601562 271.496094 185.054688 261.976562 194.496094 C 252.453125 203.863281 238.355469 200.175781 233.628906 205.410156 C 228.757812 210.648438 237.097656 232.777344 256.882812 232.777344 C 273.417969 232.777344 290.246094 221.269531 285.375 195.675781 Z M 285.375 195.675781 " fill-opacity="1" fill-rule="nonzero"/></svg>