<svg xmlns="http://www.w3.org/2000/svg" xmlns:xlink="http://www.w3.org/1999/xlink" width="500" zoomAndPan="magnify" viewBox="0 0 375 374.999991" height="500" preserveAspectRatio="xMidYMid meet" version="1.0"><defs><clipPath id="7130981d67"><path d="M 46 49 L 365 49 L 365 330.511719 L 46 330.511719 Z M 46 49 " clip-rule="nonzero"/></clipPath><clipPath id="15c97618f5"><path d="M 54 49 L 348 49 L 348 330.511719 L 54 330.511719 Z M 54 49 " clip-rule="nonzero"/></clipPath><clipPath id="3152d5d985"><path d="M 47 51 L 364 51 L 364 330.511719 L 47 330.511719 Z M 47 51 " clip-rule="nonzero"/></clipPath><clipPath id="75f22f8759"><path d="M 47 50 L 365 50 L 365 330.511719 L 47 330.511719 Z M 47 50 " clip-rule="nonzero"/></clipPath><clipPath id="859038d4fb"><path d="M 2 45 L 368 45 L 368 330.511719 L 2 330.511719 Z M 2 45 " clip-rule="nonzero"/></clipPath></defs><g clip-path="url(#7130981d67)"><path fill="#ffffff" d="M 75.867188 330.308594 C 75.867188 330.308594 74.078125 330.308594 71.914062 318.441406 C 69.226562 303.589844 75.269531 276.121094 76.164062 273.957031 C 69.972656 269.253906 45.804688 246.714844 46.996094 215.515625 C 48.191406 184.316406 71.539062 152.816406 71.539062 152.816406 C 71.539062 152.816406 75.046875 86.613281 110.109375 49.070312 C 122.863281 50.339844 158.894531 81.386719 165.460938 87.210938 C 182.023438 82.132812 229.316406 82.804688 246.847656 87.0625 C 246.847656 87.0625 270.792969 59.59375 303.917969 50.636719 C 309.511719 52.652344 347.183594 115.796875 340.171875 153.488281 C 351.4375 163.789062 390.003906 222.308594 337.039062 276.792969 C 347.183594 305.230469 340.769531 330.382812 340.769531 330.382812 Z M 75.867188 330.308594 C 75.867188 330.308594 71.914062 328.292969 70.867188 321.128906 C 68.554688 305.378906 75.121094 276.71875 76.164062 274.03125 C 69.972656 269.328125 45.804688 246.789062 46.996094 215.589844 C 48.191406 184.390625 71.539062 152.890625 71.539062 152.890625 C 71.539062 152.890625 73.554688 88.179688 108.617188 50.636719 C 121.371094 51.90625 158.894531 81.464844 165.460938 87.285156 C 182.023438 82.210938 229.316406 82.882812 246.847656 87.136719 C 246.847656 87.136719 268.78125 59.667969 301.828125 50.710938 C 307.421875 52.726562 347.109375 115.871094 340.097656 153.5625 C 351.363281 163.863281 389.929688 222.382812 336.964844 276.867188 C 347.109375 305.304688 340.023438 330.457031 340.023438 330.457031 L 75.867188 330.457031 Z M 75.867188 330.308594 " fill-opacity="1" fill-rule="nonzero"/></g><g clip-path="url(#15c97618f5)"><path fill="#efb07d" d="M 187.691406 84.746094 C 187.691406 84.746094 231.480469 133.484375 174.636719 178.417969 C 117.792969 223.351562 45.730469 200.660156 55.5 181.328125 C 55.5 181.328125 64.976562 157.296875 73.851562 151.699219 C 68.40625 137.292969 81.238281 97.0625 92.949219 73.253906 C 92.949219 73.253906 104.738281 50.710938 110.109375 49.144531 C 115.480469 47.578125 150.167969 71.761719 164.191406 84.597656 C 173.144531 85.71875 187.691406 84.746094 187.691406 84.746094 Z M 316.375 330.308594 C 316.375 330.308594 337.410156 324.636719 347.929688 305.15625 C 335.472656 274.40625 321.96875 232.308594 310.480469 224.398438 C 298.992188 216.484375 295.859375 223.203125 291.160156 230.292969 C 286.832031 222.308594 274.152344 216.1875 270.199219 230.292969 C 265.273438 223.648438 250.429688 222.679688 251.027344 246.640625 C 251.695312 270.597656 264.675781 330.308594 264.675781 330.308594 Z M 316.375 330.308594 " fill-opacity="1" fill-rule="nonzero"/></g><g clip-path="url(#3152d5d985)"><path fill="#ef5454" d="M 107.722656 112.738281 C 107.722656 112.738281 96.980469 129.230469 88.25 144.160156 C 88.027344 92.882812 113.390625 70.566406 113.390625 70.566406 C 106.902344 84.449219 107.722656 112.738281 107.722656 112.738281 Z M 304.4375 112.738281 C 304.4375 112.738281 314.136719 129.230469 322.9375 144.160156 C 323.164062 92.882812 297.800781 70.566406 297.800781 70.566406 C 304.289062 84.449219 304.4375 112.738281 304.4375 112.738281 Z M 88.25 246.042969 C 46.476562 213.574219 62.8125 168.269531 62.8125 168.269531 C 39.835938 192.972656 42 245.144531 68.78125 271.34375 C 70.71875 273.210938 72.808594 275 75.121094 276.644531 C 79.074219 267.089844 84.519531 254.625 88.25 246.042969 Z M 155.761719 286.121094 L 153.449219 300.828125 C 167.921875 302.097656 180.605469 301.796875 188.4375 300.082031 C 181.351562 296.871094 169.789062 292.542969 155.761719 286.121094 Z M 257.964844 284.703125 C 242.523438 291.871094 229.765625 296.648438 222.15625 300.082031 C 230.363281 301.871094 243.863281 302.171875 259.082031 300.675781 Z M 347.855469 168.269531 C 347.855469 168.269531 363.96875 212.976562 323.164062 245.371094 C 326.59375 253.730469 332.339844 267.464844 336.367188 275.972656 C 338.308594 274.480469 340.171875 272.910156 341.8125 271.34375 C 368.667969 245.144531 370.832031 192.972656 347.855469 168.269531 Z M 301.15625 224.472656 C 301.15625 224.472656 313.613281 238.503906 317.492188 276.71875 C 321.371094 314.933594 308.167969 330.308594 308.167969 330.308594 L 347.855469 330.308594 C 347.855469 330.308594 352.554688 322.324219 348.601562 310.230469 C 344.722656 298.140625 320.253906 231.636719 308.09375 224.398438 C 296.007812 217.15625 301.15625 224.472656 301.15625 224.472656 Z M 102.125 224.320312 C 89.964844 231.5625 65.496094 298.140625 61.617188 310.15625 C 57.738281 322.25 62.363281 330.234375 62.363281 330.234375 L 102.050781 330.234375 C 102.050781 330.234375 88.773438 314.785156 92.726562 276.644531 C 96.605469 238.429688 109.0625 224.398438 109.0625 224.398438 C 109.0625 224.398438 114.285156 217.15625 102.125 224.320312 Z M 220.960938 249.25 C 220.960938 249.25 210.445312 254.773438 195.300781 249.25 C 202.609375 263.582031 216.636719 260.671875 220.960938 249.25 Z M 264.453125 91.988281 C 264.453125 91.988281 285.714844 63.027344 303.246094 53.175781 C 303.917969 50.636719 294.515625 48.546875 279.375 60.265625 C 264.230469 71.984375 246.847656 87.136719 246.847656 87.136719 Z M 165.609375 87.136719 C 165.609375 87.136719 148.226562 71.984375 133.085938 60.265625 C 117.941406 48.546875 108.542969 50.636719 109.214844 53.175781 C 126.742188 63.027344 148.003906 91.988281 148.003906 91.988281 Z M 165.609375 87.136719 " fill-opacity="0.3" fill-rule="nonzero"/></g><g clip-path="url(#75f22f8759)"><path fill="#ffffff" d="M 108.542969 50.636719 C 108.542969 50.636719 81.6875 100.496094 83.550781 155.652344 C 67.585938 168.34375 59.230469 181.328125 50.726562 203.125 C 50.429688 189.914062 58.335938 174.835938 71.464844 152.890625 C 73.480469 124.828125 90.191406 67.65625 108.542969 50.636719 Z M 72.136719 273.660156 C 72.136719 273.660156 74.898438 273.957031 77.0625 264.03125 C 50.054688 236.9375 50.28125 204.46875 50.28125 204.46875 C 36.179688 235.519531 72.136719 273.660156 72.136719 273.660156 Z M 66.542969 330.308594 C 68.40625 330.308594 72.585938 330.308594 75.867188 330.308594 C 64.753906 316.425781 77.0625 282.242188 77.0625 282.242188 C 55.800781 310.230469 61.46875 330.308594 66.542969 330.308594 Z M 335.621094 282.242188 C 335.621094 282.242188 347.855469 316.425781 336.816406 330.308594 C 340.621094 330.308594 343.679688 330.308594 345.617188 330.308594 C 349.347656 329.113281 349.945312 328.964844 349.945312 328.964844 C 349.945312 328.964844 356.882812 310.230469 335.621094 282.242188 Z M 361.582031 204.542969 C 361.582031 204.542969 361.804688 237.011719 334.800781 264.105469 C 336.964844 274.03125 340.246094 276.941406 340.246094 276.941406 C 340.246094 276.941406 375.679688 235.519531 361.582031 204.542969 Z M 361.582031 204.542969 " fill-opacity="1" fill-rule="nonzero"/></g><g clip-path="url(#859038d4fb)"><path fill="#2b0806" d="M 281.613281 136.246094 C 271.316406 136.769531 238.269531 148.9375 238.417969 152.742188 C 238.71875 159.757812 262.738281 168.941406 279.746094 175.957031 C 296.753906 182.972656 293.25 173.492188 284.371094 167.820312 C 287.578125 169.6875 293.921875 168.492188 289.070312 164.011719 C 285.714844 160.953125 265.199219 152.667969 265.199219 152.667969 C 265.199219 152.667969 276.242188 149.980469 284.074219 147.816406 C 291.457031 145.800781 290.191406 142.59375 283.101562 142.964844 C 286.535156 141.921875 290.5625 135.800781 281.613281 136.246094 Z M 231.929688 168.195312 C 229.691406 172.820312 224.765625 176.777344 219.917969 174.910156 C 215.070312 173.046875 211.636719 165.207031 206.117188 165.207031 C 200.597656 165.207031 197.238281 173.046875 192.316406 174.910156 C 187.46875 176.777344 182.542969 172.820312 180.304688 168.195312 C 173.515625 171.851562 162.253906 181.628906 163 201.183594 C 163.746094 220.738281 177.472656 236.113281 206.117188 236.113281 C 234.6875 236.113281 248.488281 220.664062 249.234375 201.183594 C 249.90625 181.628906 238.640625 171.851562 231.929688 168.195312 Z M 132.488281 175.957031 C 149.496094 168.941406 173.515625 159.757812 173.816406 152.742188 C 173.964844 148.9375 140.84375 136.769531 130.621094 136.246094 C 121.671875 135.800781 125.699219 141.921875 129.207031 143.039062 C 122.117188 142.59375 120.851562 145.875 128.234375 147.890625 C 136.070312 150.054688 147.109375 152.742188 147.109375 152.742188 C 147.109375 152.742188 126.59375 161.027344 123.238281 164.089844 C 118.390625 168.566406 124.730469 169.761719 127.9375 167.894531 C 118.984375 173.492188 115.480469 182.972656 132.488281 175.957031 Z M 297.875 70.492188 C 297.875 70.492188 304.289062 97.359375 300.785156 119.453125 C 306.003906 121.691406 322.9375 144.160156 322.9375 144.160156 C 322.9375 144.160156 320.03125 129.082031 308.019531 116.246094 C 310.707031 101.617188 306.003906 78.105469 297.875 70.492188 Z M 340.246094 276.867188 C 390.75 227.605469 359.34375 173.640625 343.753906 153.339844 C 342.035156 87.210938 309.882812 44.816406 301.753906 45.785156 C 274.226562 53.175781 247.667969 80.195312 243.863281 84.222656 C 227.976562 80.042969 213.351562 79.597656 206.117188 79.746094 C 198.882812 79.671875 184.257812 80.042969 168.371094 84.222656 C 164.492188 80.195312 138.007812 53.175781 110.480469 45.785156 C 102.273438 44.816406 70.199219 87.210938 68.480469 153.339844 C 52.964844 173.566406 21.558594 227.53125 71.988281 276.867188 L 71.914062 277.089844 C 68.257812 285.898438 64.601562 295.003906 61.246094 303.738281 C 60.050781 306.949219 55.425781 320.234375 56.769531 330.308594 C 59.15625 330.308594 66.320312 330.308594 66.617188 330.308594 C 63.335938 326.800781 66.542969 312.246094 68.109375 307.617188 C 73.703125 290.972656 81.761719 269.253906 87.503906 256.191406 C 97.648438 232.980469 105.855469 222.976562 113.6875 224.546875 C 118.6875 225.515625 121.746094 235.519531 121.746094 235.519531 C 121.746094 235.519531 127.640625 224.472656 134.503906 225.589844 C 140.023438 226.488281 139.722656 232.457031 139.425781 238.054688 C 143.828125 227.980469 155.539062 225.292969 157.777344 238.726562 C 159.269531 247.832031 145.09375 318.367188 143.828125 330.308594 C 143.828125 330.308594 149.050781 330.308594 152.257812 330.308594 C 153.003906 322.695312 159.121094 282.613281 161.28125 266.71875 C 163.597656 249.550781 165.164062 241.117188 162.402344 233.503906 C 156.808594 218.125 145.167969 222.679688 142.855469 227.382812 C 144.199219 216.410156 129.503906 214.617188 123.015625 225.738281 C 119.65625 212.828125 104.886719 211.484375 92.429688 233.203125 C 87.652344 241.5625 81.386719 255 74.972656 270.074219 C 63.558594 259.179688 25.140625 215.664062 75.046875 154.3125 C 75.046875 138.710938 82.507812 88.253906 109.136719 53.175781 C 113.613281 50.9375 137.261719 64.296875 161.359375 86.464844 C 156.882812 87.957031 152.332031 89.746094 147.929688 91.988281 C 149.570312 93.925781 172.027344 86.6875 206.191406 86.6875 C 240.359375 86.6875 262.8125 93.925781 264.453125 91.988281 C 260.050781 89.746094 255.5 87.957031 251.027344 86.464844 C 275.121094 64.296875 298.84375 50.9375 303.246094 53.175781 C 329.878906 88.253906 337.335938 138.785156 337.335938 154.3125 C 387.242188 215.664062 348.824219 259.179688 337.410156 270.074219 C 330.996094 255.074219 324.730469 241.5625 319.957031 233.203125 C 307.496094 211.558594 292.726562 212.902344 289.371094 225.738281 C 282.878906 214.617188 268.183594 216.410156 269.527344 227.382812 C 267.140625 222.753906 255.578125 218.125 249.980469 233.503906 C 247.222656 241.117188 248.714844 249.550781 251.101562 266.71875 C 253.265625 282.613281 259.382812 322.695312 260.128906 330.308594 C 263.261719 330.308594 268.558594 330.308594 268.558594 330.308594 C 267.363281 318.367188 253.113281 247.90625 254.605469 238.726562 C 256.84375 225.21875 268.480469 227.90625 272.957031 238.054688 C 272.585938 232.457031 272.285156 226.488281 277.882812 225.589844 C 284.746094 224.472656 290.636719 235.519531 290.636719 235.519531 C 290.636719 235.519531 293.695312 225.515625 298.695312 224.546875 C 306.527344 222.976562 314.660156 232.980469 324.878906 256.191406 C 330.625 269.253906 338.679688 290.972656 344.273438 307.617188 C 345.839844 312.246094 349.050781 326.800781 345.765625 330.308594 C 346.066406 330.308594 353.226562 330.308594 355.613281 330.308594 C 356.957031 320.234375 352.332031 306.949219 351.136719 303.738281 C 347.632812 294.929688 343.902344 285.75 340.246094 276.867188 Z M 59.304688 123.785156 C 49.460938 115.273438 39.6875 106.765625 29.914062 98.257812 C 27.601562 96.242188 21.113281 99.675781 24.246094 102.363281 C 34.015625 110.871094 43.789062 119.378906 53.5625 127.886719 C 55.949219 129.902344 62.363281 126.46875 59.304688 123.785156 Z M 49.160156 136.246094 C 35.660156 131.917969 22.15625 127.664062 8.652344 123.335938 C 5.519531 122.363281 0 126.84375 4.402344 128.261719 C 17.902344 132.589844 31.40625 136.84375 44.910156 141.175781 C 48.042969 142.144531 53.5625 137.589844 49.160156 136.246094 Z M 45.953125 151.847656 C 36.851562 154.234375 27.824219 156.699219 18.722656 159.085938 C 14.25 160.28125 15.367188 164.535156 19.84375 163.34375 C 28.945312 160.953125 37.972656 158.492188 47.070312 156.101562 C 51.546875 154.90625 50.429688 150.652344 45.953125 151.847656 Z M 103.097656 116.246094 C 91.160156 129.082031 88.175781 144.160156 88.175781 144.160156 C 88.175781 144.160156 105.109375 121.691406 110.332031 119.453125 C 106.824219 97.359375 113.242188 70.492188 113.242188 70.492188 C 105.183594 78.105469 100.484375 101.617188 103.097656 116.246094 Z M 103.097656 116.246094 " fill-opacity="1" fill-rule="nonzero"/></g><path fill="#ef5454" d="M 242.96875 192.527344 C 243.269531 194.617188 243.417969 196.855469 243.269531 199.316406 C 242.597656 216.632812 230.4375 230.292969 205.074219 230.292969 C 194.257812 230.292969 185.902344 227.828125 179.785156 223.648438 C 199.402344 191.78125 233.867188 191.855469 242.96875 192.527344 Z M 242.96875 192.527344 C 243.269531 194.617188 243.417969 196.855469 243.269531 199.316406 C 242.597656 216.632812 230.4375 230.292969 205.074219 230.292969 C 194.257812 230.292969 185.902344 227.828125 179.785156 223.648438 C 199.402344 191.78125 233.867188 191.855469 242.96875 192.527344 Z M 242.96875 192.527344 " fill-opacity="1" fill-rule="nonzero"/></svg>